<svg xmlns="http://www.w3.org/2000/svg" viewBox="0 0 24 24" width="24" height="24">
  <path fill="#ffffff" d="M12 2C6.48 2 2 6.48 2 12s4.48 10 10 10 10-4.48 10-10S17.52 2 12 2zm4.64 6.8c-.15 1.58-.8 5.42-1.13 7.19-.14.75-.42 1-.68 1.03-.58.05-1.02-.38-1.58-.75-.88-.58-1.38-.94-2.23-1.5-.99-.65-.35-1.01.22-1.59.15-.15 2.71-2.48 2.76-2.69.01-.03.01-.14-.07-.2-.08-.06-.19-.04-.28-.02-.12.03-2.02 1.28-5.69 3.77-.54.37-1.03.55-1.47.54-.48-.01-1.4-.27-2.09-.49-.84-.28-1.51-.42-1.45-.89.03-.25.38-.5 1.04-.78 4.07-1.77 6.79-2.94 8.15-3.51 3.88-1.62 4.69-1.9 5.21-1.91.12 0 .37.03.54.17.14.12.18.28.2.47-.01.06.01.24 0 .37z"/>
</svg>
